0
SECTION
2
HEADER
9
$ACADVER
1
AC1009
9
$INSUNITS
70
6
0
ENDSEC
0
SECTION
2
TABLES
0
TABLE
2
LTYPE
70
2
0
LTYPE
2
CONTINUOUS
70
0
3
Solid line
72
65
73
0
40
0.0
0
LTYPE
2
DASHED
70
0
3
Dashed
72
65
73
2
40
10.0
49
7.0
49
-3.0
0
ENDTAB
0
TABLE
2
LAYER
70
5
0
LAYER
2
PARSEL
70
0
62
7
6
DASHED
0
LAYER
2
BINA
70
0
62
7
6
CONTINUOUS
0
LAYER
2
TEVSIYAT
70
0
62
7
6
DASHED
0
LAYER
2
GIRIS
70
0
62
7
6
CONTINUOUS
0
LAYER
2
YAZI
70
0
62
7
6
CONTINUOUS
0
ENDTAB
0
ENDSEC
0
SECTION
2
ENTITIES
0
POLYLINE
8
PARSEL
6
DASHED
66
1
70
1
0
VERTEX
8
PARSEL
10
-85.5692
20
52.2102
30
0.0
0
VERTEX
8
PARSEL
10
-31.9474
20
99.3346
30
0.0
0
VERTEX
8
PARSEL
10
34.6384
20
132.0045
30
0.0
0
VERTEX
8
PARSEL
10
94.8320
20
151.7461
30
0.0
0
VERTEX
8
PARSEL
10
138.4730
20
156.1577
30
0.0
0
VERTEX
8
PARSEL
10
167.8653
20
129.2487
30
0.0
0
VERTEX
8
PARSEL
10
189.4012
20
83.9474
30
0.0
0
VERTEX
8
PARSEL
10
211.4730
20
29.7180
30
0.0
0
VERTEX
8
PARSEL
10
165.5115
20
-10.6743
30
0.0
0
VERTEX
8
PARSEL
10
101.8897
20
-40.4782
30
0.0
0
VERTEX
8
PARSEL
10
43.9282
20
-60.0859
30
0.0
0
VERTEX
8
PARSEL
10
-6.7128
20
-52.3731
30
0.0
0
VERTEX
8
PARSEL
10
-50.7654
20
-20.0718
30
0.0
0
VERTEX
8
PARSEL
10
-74.4974
20
17.0333
30
0.0
0
SEQEND
8
PARSEL
0
POLYLINE
8
BINA
6
CONTINUOUS
66
1
70
1
0
VERTEX
8
BINA
10
0.0000
20
0.0000
30
0.0
0
VERTEX
8
BINA
10
151.5544
20
87.5000
30
0.0
0
VERTEX
8
BINA
10
125.5544
20
132.5333
30
0.0
0
VERTEX
8
BINA
10
45.0141
20
86.0333
30
0.0
0
VERTEX
8
BINA
10
48.0141
20
80.8372
30
0.0
0
VERTEX
8
BINA
10
37.6218
20
74.8372
30
0.0
0
VERTEX
8
BINA
10
30.6218
20
86.9615
30
0.0
0
VERTEX
8
BINA
10
-10.9474
20
62.9615
30
0.0
0
VERTEX
8
BINA
10
-16.9474
20
73.3538
30
0.0
0
VERTEX
8
BINA
10
-27.3397
20
67.3538
30
0.0
0
VERTEX
8
BINA
10
-21.3397
20
56.9615
30
0.0
0
VERTEX
8
BINA
10
-30.0000
20
51.9615
30
0.0
0
VERTEX
8
BINA
10
-9.0000
20
15.5885
30
0.0
0
VERTEX
8
BINA
10
-15.9282
20
11.5885
30
0.0
0
VERTEX
8
BINA
10
-11.9282
20
4.6603
30
0.0
0
VERTEX
8
BINA
10
-5.0000
20
8.6603
30
0.0
0
VERTEX
8
BINA
10
-4.0000
20
6.9282
30
0.0
0
VERTEX
8
BINA
10
-10.9282
20
2.9282
30
0.0
0
VERTEX
8
BINA
10
-6.9282
20
-4.0000
30
0.0
0
SEQEND
8
BINA
0
POLYLINE
8
TEVSIYAT
6
DASHED
66
1
70
0
0
VERTEX
8
TEVSIYAT
10
69.2820
20
40.0000
30
0.0
0
VERTEX
8
TEVSIYAT
10
97.2820
20
-8.4974
30
0.0
0
VERTEX
8
TEVSIYAT
10
179.5544
20
39.0026
30
0.0
0
VERTEX
8
TEVSIYAT
10
151.5544
20
87.5000
30
0.0
0
SEQEND
8
TEVSIYAT
0
SOLID
8
GIRIS
10
87.0513
20
105.2228
30
0.0
11
86.5660
21
110.0233
31
0.0
12
83.1365
22
108.0433
32
0.0
13
83.1365
23
108.0433
33
0.0
0
SOLID
8
GIRIS
10
134.7439
20
107.8167
30
0.0
11
139.5444
21
108.3019
31
0.0
12
137.5644
22
111.7314
32
0.0
13
137.5644
23
111.7314
33
0.0
0
TEXT
8
YAZI
10
63.2102
20
66.5167
30
0.0
40
10.200
1
B1 BLOK ANA ÜRETİM TESİSİ
50
30.000
72
1
11
63.2102
21
66.5167
31
0.0
0
TEXT
8
YAZI
10
123.9852
20
39.2513
30
0.0
40
9.350
1
TEVSİYAT ALANI
50
30.000
72
1
11
123.9852
21
39.2513
31
0.0
0
TEXT
8
YAZI
10
-58.3205
20
61.0141
30
0.0
40
8.500
1
STOK SAHASI
50
30.000
72
1
11
-58.3205
21
61.0141
31
0.0
0
TEXT
8
YAZI
10
-8.6269
20
98.9423
30
0.0
40
8.500
1
STOK SAHASI
50
30.000
72
1
11
-8.6269
21
98.9423
31
0.0
0
TEXT
8
YAZI
10
-25.1436
20
75.5500
30
0.0
40
6.375
1
ÜRÜN ÇIKIŞI
50
30.000
72
1
11
-25.1436
21
75.5500
31
0.0
0
TEXT
8
YAZI
10
-24.3205
20
2.1244
30
0.0
40
6.375
1
ÜRÜN ÇIKIŞI
50
30.000
72
1
11
-24.3205
21
2.1244
31
0.0
0
TEXT
8
YAZI
10
-18.8205
20
-7.4019
30
0.0
40
6.375
1
ÜRÜN ÇIKIŞI
50
30.000
72
1
11
-18.8205
21
-7.4019
31
0.0
0
TEXT
8
YAZI
10
6.9474
20
-56.0333
30
0.0
40
8.500
1
208/5
50
0.000
72
1
11
6.9474
21
-56.0333
31
0.0
0
TEXT
8
YAZI
10
78.8513
20
119.4256
30
0.0
40
6.375
1
DEPO GİRİŞİ
50
30.000
72
1
11
78.8513
21
119.4256
31
0.0
0
TEXT
8
YAZI
10
148.9468
20
116.0167
30
0.0
40
6.375
1
HAM MADDE
50
30.000
72
1
11
148.9468
21
116.0167
31
0.0
0
TEXT
8
YAZI
10
148.9468
20
107.7667
30
0.0
40
6.375
1
BİNASI GİRİŞİ
50
30.000
72
1
11
148.9468
21
107.7667
31
0.0
0
TEXT
8
YAZI
10
231.4730
20
-78.0859
30
0.0
40
3.200
1
VAZIYET PLANI - DIS HAT
50
0.000
72
1
11
231.4730
21
-78.0859
31
0.0
0
TEXT
8
YAZI
10
-105.5692
20
176.1577
30
0.0
40
4.000
1
K
50
0.000
72
1
11
-105.5692
21
176.1577
31
0.0
0
LINE
8
YAZI
10
201.4730
20
162.1577
11
201.4730
21
136.1577
0
SOLID
8
YAZI
10
201.4730
20
142.1577
30
0.0
11
198.7730
21
136.1577
31
0.0
12
204.1730
22
136.1577
32
0.0
13
204.1730
23
136.1577
33
0.0
0
ENDSEC
0
EOF
